<svg width="351" height="160" viewBox="0 0 351 160" fill="none" xmlns="http://www.w3.org/2000/svg">
<rect width="351" height="160" rx="20" fill="url(#paint0_linear_30_1900)"/>
<rect y="92" width="351" height="2" fill="#DE9797"/>
<path d="M17.8173 49C17.8173 46.2386 20.0558 44 22.8173 44H28.8173C31.5787 44 33.8173 46.2386 33.8173 49V126H17.8173V49Z" fill="#5D8AFF"/>
<path d="M41.8173 67C41.8173 64.2386 44.0558 62 46.8173 62H52.8173C55.5787 62 57.8173 64.2386 57.8173 67V126H41.8173V67Z" fill="#5D8AFF"/>
<path d="M65.8173 73C65.8173 70.2386 68.0558 68 70.8173 68H76.8173C79.5787 68 81.8173 70.2386 81.8173 73V126H65.8173V73Z" fill="#5D8AFF"/>
<path d="M89.8173 55C89.8173 52.2386 92.0558 50 94.8173 50H100.817C103.579 50 105.817 52.2386 105.817 55V126H89.8173V55Z" fill="#5D8AFF"/>
<path d="M113.817 32C113.817 29.2386 116.056 27 118.817 27H124.817C127.579 27 129.817 29.2386 129.817 32V126H113.817V32Z" fill="#5D8AFF"/>
<path d="M137.817 82C137.817 79.2386 140.056 77 142.817 77H148.817C151.579 77 153.817 79.2386 153.817 82V126H137.817V82Z" fill="#5D8AFF"/>
<path d="M161.817 77C161.817 74.2386 164.056 72 166.817 72H172.817C175.579 72 177.817 74.2386 177.817 77V126H161.817V77Z" fill="#5D8AFF"/>
<path d="M185.817 67C185.817 64.2386 188.056 62 190.817 62H196.817C199.579 62 201.817 64.2386 201.817 67V126H185.817V67Z" fill="#5D8AFF"/>
<path d="M209.817 55C209.817 52.2386 212.056 50 214.817 50H220.817C223.579 50 225.817 52.2386 225.817 55V126H209.817V55Z" fill="#5D8AFF"/>
<path d="M233.817 32C233.817 29.2386 236.056 27 238.817 27H244.817C247.579 27 249.817 29.2386 249.817 32V126H233.817V32Z" fill="#5D8AFF"/>
<path d="M257.817 61C257.817 58.2386 260.056 56 262.817 56H268.817C271.579 56 273.817 58.2386 273.817 61V126H257.817V61Z" fill="#5D8AFF"/>
<path d="M281.817 61C281.817 58.2386 284.056 56 286.817 56H292.817C295.579 56 297.817 58.2386 297.817 61V126H281.817V61Z" fill="#5D8AFF"/>
<path d="M305.817 77C305.817 74.2386 308.056 72 310.817 72H316.817C319.579 72 321.817 74.2386 321.817 77V126H305.817V77Z" fill="#5D8AFF"/>
<path d="M329.817 97C329.817 94.2386 332.056 92 334.817 92H340.817C343.579 92 345.817 94.2386 345.817 97V126H329.817V97Z" fill="#E23333"/>
<path d="M7.20608 138.42C7.84608 137.887 8.35608 137.443 8.73608 137.09C9.11608 136.73 9.43275 136.357 9.68608 135.97C9.93942 135.583 10.0661 135.203 10.0661 134.83C10.0661 134.49 9.98608 134.223 9.82608 134.03C9.66608 133.837 9.41942 133.74 9.08608 133.74C8.75275 133.74 8.49608 133.853 8.31608 134.08C8.13608 134.3 8.04275 134.603 8.03608 134.99H6.67608C6.70275 134.19 6.93942 133.583 7.38608 133.17C7.83942 132.757 8.41275 132.55 9.10608 132.55C9.86608 132.55 10.4494 132.753 10.8561 133.16C11.2628 133.56 11.4661 134.09 11.4661 134.75C11.4661 135.27 11.3261 135.767 11.0461 136.24C10.7661 136.713 10.4461 137.127 10.0861 137.48C9.72608 137.827 9.25608 138.247 8.67608 138.74H11.6261V139.9H6.68608V138.86L7.20608 138.42ZM17.1483 133.77L14.4883 140H13.0683L15.7483 133.93H12.3283V132.73H17.1483V133.77ZM28.1396 133.02V140H26.7396V135.46L24.8696 140H23.8096L21.9296 135.46V140H20.5296V133.02H22.1196L24.3396 138.21L26.5596 133.02H28.1396ZM33.8037 138.67H31.0237L30.5637 140H29.0937L31.6037 133.01H33.2337L35.7437 140H34.2637L33.8037 138.67ZM33.4237 137.55L32.4137 134.63L31.4037 137.55H33.4237ZM40.2819 140L38.7419 137.28H38.0819V140H36.6819V133.02H39.3019C39.8419 133.02 40.3019 133.117 40.6819 133.31C41.0619 133.497 41.3453 133.753 41.5319 134.08C41.7253 134.4 41.8219 134.76 41.8219 135.16C41.8219 135.62 41.6886 136.037 41.4219 136.41C41.1553 136.777 40.7586 137.03 40.2319 137.17L41.9019 140H40.2819ZM38.0819 136.23H39.2519C39.6319 136.23 39.9153 136.14 40.1019 135.96C40.2886 135.773 40.3819 135.517 40.3819 135.19C40.3819 134.87 40.2886 134.623 40.1019 134.45C39.9153 134.27 39.6319 134.18 39.2519 134.18H38.0819V136.23Z" fill="#5D8AFF"/>
<path d="M106.97 138.42C107.61 137.887 108.12 137.443 108.5 137.09C108.88 136.73 109.197 136.357 109.45 135.97C109.703 135.583 109.83 135.203 109.83 134.83C109.83 134.49 109.75 134.223 109.59 134.03C109.43 133.837 109.183 133.74 108.85 133.74C108.517 133.74 108.26 133.853 108.08 134.08C107.9 134.3 107.807 134.603 107.8 134.99H106.44C106.467 134.19 106.703 133.583 107.15 133.17C107.603 132.757 108.177 132.55 108.87 132.55C109.63 132.55 110.213 132.753 110.62 133.16C111.027 133.56 111.23 134.09 111.23 134.75C111.23 135.27 111.09 135.767 110.81 136.24C110.53 136.713 110.21 137.127 109.85 137.48C109.49 137.827 109.02 138.247 108.44 138.74H111.39V139.9H106.45V138.86L106.97 138.42ZM113.492 136.14C112.826 135.793 112.492 135.257 112.492 134.53C112.492 134.17 112.582 133.843 112.762 133.55C112.949 133.25 113.226 133.013 113.592 132.84C113.966 132.66 114.419 132.57 114.952 132.57C115.486 132.57 115.936 132.66 116.302 132.84C116.676 133.013 116.952 133.25 117.132 133.55C117.319 133.843 117.412 134.17 117.412 134.53C117.412 134.897 117.322 135.22 117.142 135.5C116.962 135.773 116.722 135.987 116.422 136.14C116.789 136.3 117.076 136.533 117.282 136.84C117.489 137.147 117.592 137.51 117.592 137.93C117.592 138.383 117.476 138.78 117.242 139.12C117.016 139.453 116.702 139.71 116.302 139.89C115.902 140.07 115.452 140.16 114.952 140.16C114.452 140.16 114.002 140.07 113.602 139.89C113.209 139.71 112.896 139.453 112.662 139.12C112.436 138.78 112.322 138.383 112.322 137.93C112.322 137.51 112.426 137.147 112.632 136.84C112.839 136.527 113.126 136.293 113.492 136.14ZM116.052 134.73C116.052 134.403 115.952 134.15 115.752 133.97C115.559 133.79 115.292 133.7 114.952 133.7C114.619 133.7 114.352 133.79 114.152 133.97C113.959 134.15 113.862 134.407 113.862 134.74C113.862 135.04 113.962 135.28 114.162 135.46C114.369 135.64 114.632 135.73 114.952 135.73C115.272 135.73 115.536 135.64 115.742 135.46C115.949 135.273 116.052 135.03 116.052 134.73ZM114.952 136.75C114.572 136.75 114.262 136.847 114.022 137.04C113.789 137.233 113.672 137.51 113.672 137.87C113.672 138.203 113.786 138.477 114.012 138.69C114.246 138.897 114.559 139 114.952 139C115.346 139 115.656 138.893 115.882 138.68C116.109 138.467 116.222 138.197 116.222 137.87C116.222 137.517 116.106 137.243 115.872 137.05C115.639 136.85 115.332 136.75 114.952 136.75ZM128.851 133.02V140H127.451V135.46L125.581 140H124.521L122.641 135.46V140H121.241V133.02H122.831L125.051 138.21L127.271 133.02H128.851ZM134.515 138.67H131.735L131.275 140H129.805L132.315 133.01H133.945L136.455 140H134.975L134.515 138.67ZM134.135 137.55L133.125 134.63L132.115 137.55H134.135ZM140.993 140L139.453 137.28H138.793V140H137.393V133.02H140.013C140.553 133.02 141.013 133.117 141.393 133.31C141.773 133.497 142.056 133.753 142.243 134.08C142.436 134.4 142.533 134.76 142.533 135.16C142.533 135.62 142.4 136.037 142.133 136.41C141.866 136.777 141.47 137.03 140.943 137.17L142.613 140H140.993ZM138.793 136.23H139.963C140.343 136.23 140.626 136.14 140.813 135.96C141 135.773 141.093 135.517 141.093 135.19C141.093 134.87 141 134.623 140.813 134.45C140.626 134.27 140.343 134.18 139.963 134.18H138.793V136.23Z" fill="#5D8AFF"/>
<path d="M202.97 138.42C203.61 137.887 204.12 137.443 204.5 137.09C204.88 136.73 205.197 136.357 205.45 135.97C205.703 135.583 205.83 135.203 205.83 134.83C205.83 134.49 205.75 134.223 205.59 134.03C205.43 133.837 205.183 133.74 204.85 133.74C204.517 133.74 204.26 133.853 204.08 134.08C203.9 134.3 203.807 134.603 203.8 134.99H202.44C202.467 134.19 202.703 133.583 203.15 133.17C203.603 132.757 204.177 132.55 204.87 132.55C205.63 132.55 206.213 132.753 206.62 133.16C207.027 133.56 207.23 134.09 207.23 134.75C207.23 135.27 207.09 135.767 206.81 136.24C206.53 136.713 206.21 137.127 205.85 137.48C205.49 137.827 205.02 138.247 204.44 138.74H207.39V139.9H202.45V138.86L202.97 138.42ZM209.892 137.95C209.946 138.243 210.066 138.47 210.252 138.63C210.446 138.783 210.702 138.86 211.022 138.86C211.436 138.86 211.736 138.69 211.922 138.35C212.109 138.003 212.202 137.423 212.202 136.61C212.049 136.823 211.832 136.99 211.552 137.11C211.279 137.23 210.982 137.29 210.662 137.29C210.236 137.29 209.849 137.203 209.502 137.03C209.162 136.85 208.892 136.587 208.692 136.24C208.492 135.887 208.392 135.46 208.392 134.96C208.392 134.22 208.612 133.633 209.052 133.2C209.492 132.76 210.092 132.54 210.852 132.54C211.799 132.54 212.466 132.843 212.852 133.45C213.246 134.057 213.442 134.97 213.442 136.19C213.442 137.057 213.366 137.767 213.212 138.32C213.066 138.873 212.809 139.293 212.442 139.58C212.082 139.867 211.589 140.01 210.962 140.01C210.469 140.01 210.049 139.917 209.702 139.73C209.356 139.537 209.089 139.287 208.902 138.98C208.722 138.667 208.619 138.323 208.592 137.95H209.892ZM210.952 136.15C211.299 136.15 211.572 136.043 211.772 135.83C211.972 135.617 212.072 135.33 212.072 134.97C212.072 134.577 211.966 134.273 211.752 134.06C211.546 133.84 211.262 133.73 210.902 133.73C210.542 133.73 210.256 133.843 210.042 134.07C209.836 134.29 209.732 134.583 209.732 134.95C209.732 135.303 209.832 135.593 210.032 135.82C210.239 136.04 210.546 136.15 210.952 136.15ZM224.685 133.02V140H223.285V135.46L221.415 140H220.355L218.475 135.46V140H217.075V133.02H218.665L220.885 138.21L223.105 133.02H224.685ZM230.349 138.67H227.569L227.109 140H225.639L228.149 133.01H229.779L232.289 140H230.809L230.349 138.67ZM229.969 137.55L228.959 134.63L227.949 137.55H229.969ZM236.827 140L235.287 137.28H234.627V140H233.227V133.02H235.847C236.387 133.02 236.847 133.117 237.227 133.31C237.607 133.497 237.89 133.753 238.077 134.08C238.27 134.4 238.367 134.76 238.367 135.16C238.367 135.62 238.234 136.037 237.967 136.41C237.7 136.777 237.304 137.03 236.777 137.17L238.447 140H236.827ZM234.627 136.23H235.797C236.177 136.23 236.46 136.14 236.647 135.96C236.834 135.773 236.927 135.517 236.927 135.19C236.927 134.87 236.834 134.623 236.647 134.45C236.46 134.27 236.177 134.18 235.797 134.18H234.627V136.23Z" fill="#5D8AFF"/>
<path d="M294.55 136.63C294.583 135.963 294.817 135.45 295.25 135.09C295.69 134.723 296.267 134.54 296.98 134.54C297.467 134.54 297.883 134.627 298.23 134.8C298.577 134.967 298.837 135.197 299.01 135.49C299.19 135.777 299.28 136.103 299.28 136.47C299.28 136.89 299.17 137.247 298.95 137.54C298.737 137.827 298.48 138.02 298.18 138.12V138.16C298.567 138.28 298.867 138.493 299.08 138.8C299.3 139.107 299.41 139.5 299.41 139.98C299.41 140.38 299.317 140.737 299.13 141.05C298.95 141.363 298.68 141.61 298.32 141.79C297.967 141.963 297.54 142.05 297.04 142.05C296.287 142.05 295.673 141.86 295.2 141.48C294.727 141.1 294.477 140.54 294.45 139.8H295.81C295.823 140.127 295.933 140.39 296.14 140.59C296.353 140.783 296.643 140.88 297.01 140.88C297.35 140.88 297.61 140.787 297.79 140.6C297.977 140.407 298.07 140.16 298.07 139.86C298.07 139.46 297.943 139.173 297.69 139C297.437 138.827 297.043 138.74 296.51 138.74H296.22V137.59H296.51C297.457 137.59 297.93 137.273 297.93 136.64C297.93 136.353 297.843 136.13 297.67 135.97C297.503 135.81 297.26 135.73 296.94 135.73C296.627 135.73 296.383 135.817 296.21 135.99C296.043 136.157 295.947 136.37 295.92 136.63H294.55ZM300.516 138.26C300.516 137.107 300.723 136.203 301.136 135.55C301.556 134.897 302.25 134.57 303.216 134.57C304.183 134.57 304.873 134.897 305.286 135.55C305.706 136.203 305.916 137.107 305.916 138.26C305.916 139.42 305.706 140.33 305.286 140.99C304.873 141.65 304.183 141.98 303.216 141.98C302.25 141.98 301.556 141.65 301.136 140.99C300.723 140.33 300.516 139.42 300.516 138.26ZM304.536 138.26C304.536 137.767 304.503 137.353 304.436 137.02C304.376 136.68 304.25 136.403 304.056 136.19C303.87 135.977 303.59 135.87 303.216 135.87C302.843 135.87 302.56 135.977 302.366 136.19C302.18 136.403 302.053 136.68 301.986 137.02C301.926 137.353 301.896 137.767 301.896 138.26C301.896 138.767 301.926 139.193 301.986 139.54C302.046 139.88 302.173 140.157 302.366 140.37C302.56 140.577 302.843 140.68 303.216 140.68C303.59 140.68 303.873 140.577 304.066 140.37C304.26 140.157 304.386 139.88 304.446 139.54C304.506 139.193 304.536 138.767 304.536 138.26ZM317.134 135.02V142H315.734V137.46L313.864 142H312.804L310.924 137.46V142H309.524V135.02H311.114L313.334 140.21L315.554 135.02H317.134ZM322.798 140.67H320.018L319.558 142H318.088L320.598 135.01H322.228L324.738 142H323.258L322.798 140.67ZM322.418 139.55L321.408 136.63L320.398 139.55H322.418ZM329.276 142L327.736 139.28H327.076V142H325.676V135.02H328.296C328.836 135.02 329.296 135.117 329.676 135.31C330.056 135.497 330.34 135.753 330.526 136.08C330.72 136.4 330.816 136.76 330.816 137.16C330.816 137.62 330.683 138.037 330.416 138.41C330.15 138.777 329.753 139.03 329.226 139.17L330.896 142H329.276ZM327.076 138.23H328.246C328.626 138.23 328.91 138.14 329.096 137.96C329.283 137.773 329.376 137.517 329.376 137.19C329.376 136.87 329.283 136.623 329.096 136.45C328.91 136.27 328.626 136.18 328.246 136.18H327.076V138.23Z" fill="#5D8AFF"/>
<defs>
<linearGradient id="paint0_linear_30_1900" x1="0" y1="80" x2="351" y2="80" gradientUnits="userSpaceOnUse">
<stop stop-color="#D7EDF5"/>
<stop offset="1" stop-color="#DDE9ED"/>
</linearGradient>
</defs>
</svg>
